<svg width="220" height="42" viewBox="0 0 220 42" fill="none" xmlns="http://www.w3.org/2000/svg">
<path d="M24.17 20.035C26.425 18.11 27.525 15.58 27.525 12.5C27.525 9.255 26.37 6.615 24.005 4.58C21.695 2.545 18.835 1.5 15.37 1.5H0.3V40H16.47C19.99 40 22.96 38.955 25.325 36.865C27.69 34.775 28.9 32.08 28.9 28.725C28.9 24.93 27.305 22.07 24.17 20.035ZM15.37 9.75C17.35 9.75 18.725 11.18 18.725 13.16C18.725 15.14 17.35 16.57 15.37 16.57H9.1V9.75H15.37ZM9.1 31.75V24.38H16.47C18.67 24.38 20.1 25.865 20.1 28.065C20.1 30.265 18.67 31.75 16.47 31.75H9.1ZM65.8385 34.995C69.7435 31.145 71.6685 26.415 71.6685 20.75C71.6685 15.085 69.7435 10.355 65.8385 6.505C61.9335 2.655 57.2035 0.729997 51.6485 0.729997C46.0935 0.729997 41.3635 2.655 37.4585 6.505C33.5535 10.355 31.6285 15.085 31.6285 20.75C31.6285 26.415 33.5535 31.145 37.4585 34.995C41.3635 38.845 46.0935 40.77 51.6485 40.77C57.2035 40.77 61.9335 38.845 65.8385 34.995ZM43.6185 29C41.4735 26.855 40.4285 24.105 40.4285 20.75C40.4285 17.395 41.4735 14.645 43.6185 12.5C45.7635 10.355 48.4585 9.31 51.6485 9.31C54.8385 9.31 57.4785 10.355 59.6235 12.5C61.7685 14.645 62.8685 17.395 62.8685 20.75C62.8685 24.105 61.7685 26.855 59.6235 29C57.4785 31.145 54.8385 32.19 51.6485 32.19C48.4585 32.19 45.7635 31.145 43.6185 29ZM95.224 1.5L87.909 16.35L80.594 1.5H70.584L83.509 25.205V40H92.309V25.205L105.234 1.5H95.224ZM137.686 40L124.596 1.5H113.376L100.286 40H109.911L111.836 33.95H126.136L128.061 40H137.686ZM118.986 11.565L123.496 25.7H114.476L118.986 11.565ZM150.128 39.23C152.163 37.195 152.163 33.895 150.128 31.86C148.093 29.825 144.793 29.825 142.758 31.86C140.723 33.895 140.723 37.195 142.758 39.23C144.793 41.265 148.093 41.265 150.128 39.23ZM191.558 40L178.468 1.5H167.248L154.158 40H163.783L165.708 33.95H180.008L181.933 40H191.558ZM172.858 11.565L177.368 25.7H168.348L172.858 11.565ZM219.591 8.32V1.5H193.741V9.97H208.206L193.466 33.18V40H219.866V31.53H204.851L219.591 8.32Z" fill="white"/>
</svg>
