<svg width="21" height="21" viewBox="0 0 21 21" fill="none" xmlns="http://www.w3.org/2000/svg">
<path d="M20.8717 5.6628C20.7411 5.47228 20.5659 5.37702 20.346 5.37702H6.34912L5.27719 1.63004C5.18099 1.29133 5.05044 1.00202 4.88552 0.762097C4.72061 0.522177 4.54539 0.352823 4.35987 0.254032C4.17434 0.155242 4.01286 0.0882056 3.87544 0.0529234C3.73801 0.0176411 3.60058 0 3.46316 0H0.639035C0.46038 0 0.30921 0.0635081 0.185526 0.190524C0.0618421 0.31754 0 0.479839 0 0.677419C0 0.790323 0.0274854 0.899698 0.0824561 1.00554C0.137427 1.11139 0.216447 1.19254 0.319517 1.24899C0.422587 1.30544 0.529093 1.33367 0.639035 1.33367H3.46316C3.51813 1.33367 3.56966 1.34073 3.61776 1.35484C3.66586 1.36895 3.73114 1.42893 3.81359 1.53478C3.89605 1.64062 3.96476 1.7994 4.01973 2.01109L7.66842 15.7712C7.6959 15.8558 7.74056 15.937 7.80241 16.0146C7.86425 16.0922 7.9364 16.1522 8.01885 16.1946C8.10131 16.2369 8.19064 16.2581 8.28684 16.2581H17.1921C17.3295 16.2581 17.4566 16.2157 17.5735 16.131C17.6903 16.0464 17.7693 15.9405 17.8105 15.8135L20.9645 6.2873C21.0332 6.06149 21.0023 5.85333 20.8717 5.6628ZM16.7386 14.9032H8.80219L6.69956 6.73185H19.3978L16.7386 14.9032ZM15.4399 17.6129C14.9864 17.6129 14.5982 17.7787 14.2752 18.1104C13.9523 18.442 13.7908 18.8407 13.7908 19.3065C13.7908 19.7722 13.9523 20.1709 14.2752 20.5025C14.5982 20.8342 14.9864 21 15.4399 21C15.8934 21 16.2816 20.8342 16.6046 20.5025C16.9275 20.1709 17.089 19.7722 17.089 19.3065C17.089 18.8407 16.9275 18.442 16.6046 18.1104C16.2816 17.7787 15.8934 17.6129 15.4399 17.6129ZM9.50306 17.6129C9.20072 17.6129 8.92243 17.6905 8.6682 17.8458C8.41396 18.001 8.21469 18.2056 8.07039 18.4597C7.92609 18.7137 7.85394 18.996 7.85394 19.3065C7.85394 19.7722 8.01542 20.1709 8.33837 20.5025C8.66132 20.8342 9.04955 21 9.50306 21C9.95657 21 10.3448 20.8342 10.6678 20.5025C10.9907 20.1709 11.1522 19.7722 11.1522 19.3065C11.1522 19.1935 11.1419 19.0806 11.1213 18.9677C11.1006 18.8548 11.0697 18.749 11.0285 18.6502C10.9873 18.5514 10.9357 18.4562 10.8739 18.3644C10.8121 18.2727 10.7433 18.188 10.6678 18.1104C10.5922 18.0328 10.5097 17.9622 10.4204 17.8987C10.3311 17.8352 10.2383 17.7823 10.1421 17.7399C10.0459 17.6976 9.94283 17.6658 9.83289 17.6447C9.72295 17.6235 9.613 17.6129 9.50306 17.6129Z" fill="white"/>
</svg>
