<svg width="27" height="26" viewBox="0 0 27 26" fill="none" xmlns="http://www.w3.org/2000/svg">
<path d="M26.835 7.01109C26.6672 6.7752 26.4419 6.65726 26.1592 6.65726H8.16315L6.78496 2.01815C6.66127 1.59879 6.49342 1.24059 6.28139 0.943548C6.06936 0.646505 5.84407 0.436828 5.60554 0.314516C5.36701 0.192204 5.15939 0.109207 4.9827 0.0655242C4.80601 0.0218414 4.62932 0 4.45263 0H0.821616C0.591917 0 0.397556 0.078629 0.238534 0.235887C0.0795112 0.393145 0 0.594086 0 0.83871C0 0.978495 0.0353383 1.11391 0.106015 1.24496C0.176692 1.37601 0.278289 1.47648 0.410808 1.54637C0.543327 1.61626 0.680263 1.65121 0.821616 1.65121H4.45263C4.5233 1.65121 4.58956 1.65995 4.65141 1.67742C4.71325 1.69489 4.79718 1.76915 4.90319 1.9002C5.00921 2.03125 5.09755 2.22782 5.16823 2.48992L9.85939 19.5262C9.89473 19.631 9.95215 19.7315 10.0317 19.8276C10.1112 19.9237 10.2039 19.998 10.31 20.0504C10.416 20.1028 10.5308 20.129 10.6545 20.129H22.1041C22.2808 20.129 22.4443 20.0766 22.5944 19.9718C22.7446 19.8669 22.8462 19.7359 22.8992 19.5786L26.9543 7.78427C27.0426 7.5047 27.0029 7.24698 26.835 7.01109ZM21.521 18.4516H11.3171L8.61372 8.33468H24.94L21.521 18.4516ZM19.8513 21.8065C19.2682 21.8065 18.7691 22.0118 18.3538 22.4224C17.9386 22.833 17.731 23.3266 17.731 23.9032C17.731 24.4798 17.9386 24.9735 18.3538 25.3841C18.7691 25.7947 19.2682 26 19.8513 26C20.4344 26 20.9335 25.7947 21.3488 25.3841C21.764 24.9735 21.9716 24.4798 21.9716 23.9032C21.9716 23.3266 21.764 22.833 21.3488 22.4224C20.9335 22.0118 20.4344 21.8065 19.8513 21.8065ZM12.2182 21.8065C11.8295 21.8065 11.4717 21.9026 11.1448 22.0948C10.8179 22.287 10.5617 22.5403 10.3762 22.8548C10.1907 23.1694 10.0979 23.5188 10.0979 23.9032C10.0979 24.4798 10.3055 24.9735 10.7208 25.3841C11.136 25.7947 11.6351 26 12.2182 26C12.8013 26 13.3005 25.7947 13.7157 25.3841C14.1309 24.9735 14.3385 24.4798 14.3385 23.9032C14.3385 23.7634 14.3253 23.6237 14.2988 23.4839C14.2723 23.3441 14.2325 23.213 14.1795 23.0907C14.1265 22.9684 14.0602 22.8505 13.9807 22.7369C13.9012 22.6233 13.8129 22.5185 13.7157 22.4224C13.6185 22.3263 13.5125 22.2389 13.3976 22.1603C13.2828 22.0817 13.1635 22.0161 13.0398 21.9637C12.9162 21.9113 12.7836 21.872 12.6423 21.8458C12.5009 21.8196 12.3596 21.8065 12.2182 21.8065Z" fill="white"/>
</svg>
