<svg width="38" height="37" viewBox="0 0 38 37" fill="none" xmlns="http://www.w3.org/2000/svg">
<path d="M37.7678 9.97732C37.5316 9.64163 37.2145 9.47379 36.8166 9.47379H11.4889L9.5492 2.87198C9.37513 2.2752 9.13888 1.76546 8.84047 1.34274C8.54206 0.920027 8.22499 0.62164 7.88928 0.447581C7.55357 0.273522 7.26137 0.15541 7.01269 0.093246C6.76402 0.031082 6.51534 0 6.26666 0H1.15635C0.833068 0 0.559523 0.111895 0.335714 0.335685C0.111905 0.559476 0 0.84543 0 1.19355C0 1.39247 0.0497354 1.58518 0.149206 1.77167C0.248677 1.95817 0.391666 2.10114 0.578174 2.2006C0.764682 2.30007 0.957407 2.3498 1.15635 2.3498H6.26666C6.36613 2.3498 6.45939 2.36223 6.54642 2.3871C6.63346 2.41196 6.75158 2.51764 6.90079 2.70413C7.05 2.89063 7.17433 3.17036 7.2738 3.54335L13.8762 27.7873C13.9259 27.9365 14.0067 28.0795 14.1186 28.2162C14.2305 28.353 14.3611 28.4587 14.5103 28.5333C14.6595 28.6079 14.8212 28.6452 14.9952 28.6452H31.1095C31.3582 28.6452 31.5882 28.5706 31.7996 28.4214C32.011 28.2722 32.1539 28.0857 32.2285 27.8619L37.9357 11.0776C38.06 10.6798 38.0041 10.313 37.7678 9.97732ZM30.2889 26.2581H15.9278L12.123 11.8609H35.1008L30.2889 26.2581ZM27.9389 31.0323C27.1182 31.0323 26.4157 31.3244 25.8313 31.9088C25.2469 32.4931 24.9547 33.1956 24.9547 34.0161C24.9547 34.8367 25.2469 35.5391 25.8313 36.1235C26.4157 36.7078 27.1182 37 27.9389 37C28.7595 37 29.462 36.7078 30.0464 36.1235C30.6308 35.5391 30.923 34.8367 30.923 34.0161C30.923 33.1956 30.6308 32.4931 30.0464 31.9088C29.462 31.3244 28.7595 31.0323 27.9389 31.0323ZM17.196 31.0323C16.6489 31.0323 16.1454 31.169 15.6853 31.4425C15.2253 31.7161 14.8647 32.0766 14.6036 32.5242C14.3425 32.9718 14.2119 33.4691 14.2119 34.0161C14.2119 34.8367 14.5041 35.5391 15.0885 36.1235C15.6729 36.7078 16.3754 37 17.196 37C18.0167 37 18.7192 36.7078 19.3036 36.1235C19.8879 35.5391 20.1801 34.8367 20.1801 34.0161C20.1801 33.8172 20.1615 33.6183 20.1242 33.4194C20.0869 33.2204 20.0309 33.0339 19.9563 32.8599C19.8817 32.6858 19.7885 32.518 19.6766 32.3564C19.5647 32.1947 19.4403 32.0455 19.3036 31.9088C19.1668 31.772 19.0176 31.6477 18.8559 31.5358C18.6943 31.4239 18.5264 31.3306 18.3524 31.2561C18.1783 31.1815 17.9918 31.1255 17.7928 31.0882C17.5939 31.0509 17.395 31.0323 17.196 31.0323Z" fill="#2F76C1"/>
</svg>
