<svg width="17" height="17" viewBox="0 0 17 17" fill="none" xmlns="http://www.w3.org/2000/svg">
<path d="M17.0001 8.55215C17.0001 3.82827 13.1943 -0.000976562 8.50012 -0.000976562C3.80388 8.59376e-05 -0.0019989 3.82827 -0.0019989 8.55321C-0.0019989 12.8213 3.10688 16.3594 7.16988 17.0011V11.0246H5.013V8.55321H7.172V6.66727C7.172 4.52421 8.44169 3.34059 10.3829 3.34059C11.3136 3.34059 12.2858 3.5074 12.2858 3.5074V5.61115H11.2137C10.1587 5.61115 9.82931 6.27096 9.82931 6.94777V8.55215H12.1859L11.8098 11.0235H9.82825V17.0001C13.8912 16.3583 17.0001 12.8202 17.0001 8.55215Z" fill="#2C343E" fill-opacity="0.97"/>
</svg>
