<svg width="18" height="18" viewBox="0 0 18 18" fill="none" xmlns="http://www.w3.org/2000/svg">
<path fill-rule="evenodd" clip-rule="evenodd" d="M5.59873 0.7995C6.47848 0.759 6.75898 0.75 8.99998 0.75C11.241 0.75 11.5215 0.75975 12.4005 0.7995C13.2795 0.83925 13.8795 0.9795 14.4045 1.18275C14.9542 1.3905 15.453 1.71525 15.8655 2.13525C16.2855 2.547 16.6095 3.045 16.8165 3.5955C17.0205 4.1205 17.16 4.7205 17.2005 5.598C17.241 6.47925 17.25 6.75975 17.25 9C17.25 11.241 17.2402 11.5215 17.2005 12.4012C17.1607 13.2787 17.0205 13.8787 16.8165 14.4037C16.6095 14.9543 16.2849 15.4531 15.8655 15.8655C15.453 16.2855 14.9542 16.6095 14.4045 16.8165C13.8795 17.0205 13.2795 17.16 12.402 17.2005C11.5215 17.241 11.241 17.25 8.99998 17.25C6.75898 17.25 6.47848 17.2402 5.59873 17.2005C4.72123 17.1607 4.12123 17.0205 3.59623 16.8165C3.04568 16.6095 2.54685 16.2849 2.13448 15.8655C1.71477 15.4535 1.38997 14.9549 1.18273 14.4045C0.979485 13.8795 0.839985 13.2795 0.799485 12.402C0.758985 11.5207 0.749985 11.2402 0.749985 9C0.749985 6.759 0.759735 6.4785 0.799485 5.5995C0.839235 4.7205 0.979485 4.1205 1.18273 3.5955C1.39028 3.04506 1.71532 2.54648 2.13523 2.1345C2.54701 1.71488 3.04534 1.39008 3.59548 1.18275C4.12048 0.9795 4.72048 0.84 5.59798 0.7995H5.59873ZM12.3337 2.2845C11.4637 2.24475 11.2027 2.2365 8.99998 2.2365C6.79723 2.2365 6.53623 2.24475 5.66623 2.2845C4.86148 2.32125 4.42498 2.4555 4.13398 2.56875C3.74923 2.71875 3.47398 2.8965 3.18523 3.18525C2.91152 3.45154 2.70087 3.77571 2.56873 4.134C2.45548 4.425 2.32123 4.8615 2.28448 5.66625C2.24473 6.53625 2.23648 6.79725 2.23648 9C2.23648 11.2028 2.24473 11.4637 2.28448 12.3337C2.32123 13.1385 2.45548 13.575 2.56873 13.866C2.70073 14.2238 2.91148 14.5485 3.18523 14.8148C3.45148 15.0885 3.77623 15.2993 4.13398 15.4313C4.42498 15.5445 4.86148 15.6788 5.66623 15.7155C6.53623 15.7552 6.79648 15.7635 8.99998 15.7635C11.2035 15.7635 11.4637 15.7552 12.3337 15.7155C13.1385 15.6788 13.575 15.5445 13.866 15.4313C14.2507 15.2813 14.526 15.1035 14.8147 14.8148C15.0885 14.5485 15.2992 14.2238 15.4312 13.866C15.5445 13.575 15.6787 13.1385 15.7155 12.3337C15.7552 11.4637 15.7635 11.2028 15.7635 9C15.7635 6.79725 15.7552 6.53625 15.7155 5.66625C15.6787 4.8615 15.5445 4.425 15.4312 4.134C15.2812 3.74925 15.1035 3.474 14.8147 3.18525C14.5484 2.91155 14.2243 2.70091 13.866 2.56875C13.575 2.4555 13.1385 2.32125 12.3337 2.2845ZM7.94623 11.5433C8.53473 11.7882 9.19002 11.8213 9.80018 11.6368C10.4103 11.4523 10.9375 11.0617 11.2917 10.5317C11.6459 10.0017 11.805 9.36515 11.742 8.73083C11.679 8.0965 11.3977 7.50373 10.9462 7.05375C10.6584 6.76611 10.3104 6.54586 9.92723 6.40886C9.54407 6.27186 9.13531 6.22152 8.73036 6.26146C8.32541 6.3014 7.93435 6.43063 7.58534 6.63985C7.23633 6.84906 6.93804 7.13306 6.71196 7.47139C6.48588 7.80972 6.33763 8.19397 6.27787 8.59647C6.21812 8.99897 6.24835 9.40972 6.36639 9.79914C6.48443 10.1886 6.68735 10.547 6.96052 10.8485C7.2337 11.1501 7.57035 11.3874 7.94623 11.5433ZM6.00148 6.0015C6.39525 5.60773 6.86272 5.29538 7.37721 5.08227C7.89169 4.86916 8.44311 4.75948 8.99998 4.75948C9.55686 4.75948 10.1083 4.86916 10.6228 5.08227C11.1372 5.29538 11.6047 5.60773 11.9985 6.0015C12.3923 6.39527 12.7046 6.86274 12.9177 7.37722C13.1308 7.89171 13.2405 8.44313 13.2405 9C13.2405 9.55687 13.1308 10.1083 12.9177 10.6228C12.7046 11.1373 12.3923 11.6047 11.9985 11.9985C11.2032 12.7938 10.1246 13.2405 8.99998 13.2405C7.87533 13.2405 6.79674 12.7938 6.00148 11.9985C5.20623 11.2032 4.75947 10.1247 4.75947 9C4.75947 7.87534 5.20623 6.79675 6.00148 6.0015ZM14.181 5.391C14.2786 5.29895 14.3567 5.18826 14.4107 5.06548C14.4647 4.9427 14.4936 4.81033 14.4955 4.6762C14.4975 4.54207 14.4725 4.40891 14.4221 4.28461C14.3717 4.1603 14.2968 4.04738 14.202 3.95253C14.1071 3.85768 13.9942 3.78282 13.8699 3.73239C13.7456 3.68196 13.6124 3.65698 13.4783 3.65894C13.3442 3.66089 13.2118 3.68974 13.089 3.74377C12.9662 3.7978 12.8555 3.87592 12.7635 3.9735C12.5845 4.16327 12.4865 4.41534 12.4903 4.6762C12.4941 4.93705 12.5994 5.18616 12.7839 5.37063C12.9683 5.55511 13.2174 5.66042 13.4783 5.66422C13.7391 5.66803 13.9912 5.57002 14.181 5.391Z" />
</svg>
