<svg width="24" height="22" viewBox="0 0 24 22" fill="none" xmlns="http://www.w3.org/2000/svg">
<path d="M12 22L11.5765 21.6296C2.47059 13.8519 0 11.1111 0 6.66667C0 2.96296 2.82353 0 6.35294 0C9.24706 0 10.8706 1.7037 12 3.03704C13.1294 1.7037 14.7529 0 17.6471 0C21.1765 0 24 2.96296 24 6.66667C24 11.1111 21.5294 13.8519 12.4235 21.6296L12 22ZM6.35294 1.48148C3.6 1.48148 1.41176 3.77778 1.41176 6.66667C1.41176 10.4444 3.67059 12.963 12 20.0741C20.3294 12.963 22.5882 10.4444 22.5882 6.66667C22.5882 3.77778 20.4 1.48148 17.6471 1.48148C15.1765 1.48148 13.8353 3.03704 12.7765 4.2963L12 5.25926L11.2235 4.2963C10.1647 3.03704 8.82353 1.48148 6.35294 1.48148Z" fill="white"/>
</svg>
