<svg width="35" height="33" viewBox="0 0 35 33" fill="none" xmlns="http://www.w3.org/2000/svg">
<path d="M17.5 33L16.8824 32.4444C3.60294 20.7778 0 16.6667 0 10C0 4.44444 4.11765 0 9.26471 0C13.4853 0 15.8529 2.55556 17.5 4.55556C19.1471 2.55556 21.5147 0 25.7353 0C30.8824 0 35 4.44444 35 10C35 16.6667 31.3971 20.7778 18.1176 32.4444L17.5 33ZM9.26471 2.22222C5.25 2.22222 2.05882 5.66667 2.05882 10C2.05882 15.6667 5.35294 19.4444 17.5 30.1111C29.6471 19.4444 32.9412 15.6667 32.9412 10C32.9412 5.66667 29.75 2.22222 25.7353 2.22222C22.1324 2.22222 20.1765 4.55556 18.6324 6.44444L17.5 7.88889L16.3676 6.44444C14.8235 4.55556 12.8676 2.22222 9.26471 2.22222Z" fill="#2F76C1"/>
</svg>
