<svg width="23" height="22" viewBox="0 0 23 22" fill="none" xmlns="http://www.w3.org/2000/svg">
<path d="M9.23377 18.1277C4.3079 18.1277 0.339844 14.1596 0.339844 9.23377C0.339844 4.3079 4.3079 0.339844 9.23377 0.339844C14.1596 0.339844 18.1277 4.3079 18.1277 9.23377C18.1277 14.1596 14.1596 18.1277 9.23377 18.1277ZM9.23377 1.70814C5.06047 1.70814 1.70814 5.06047 1.70814 9.23377C1.70814 13.4071 5.06047 16.7594 9.23377 16.7594C13.4071 16.7594 16.7594 13.4071 16.7594 9.23377C16.7594 5.06047 13.4071 1.70814 9.23377 1.70814Z" fill="white"/>
<path d="M15.8575 14.8896L22.0011 21.0333L21.0338 22.0007L14.8901 15.857L15.8575 14.8896Z" fill="white"/>
</svg>
